<?xml version="1.0" encoding="UTF-8" standalone="no"?>
<svg
   xmlns:dc="http://purl.org/dc/elements/1.1/"
   xmlns:cc="http://creativecommons.org/ns#"
   xmlns:rdf="http://www.w3.org/1999/02/22-rdf-syntax-ns#"
   xmlns:svg="http://www.w3.org/2000/svg"
   xmlns="http://www.w3.org/2000/svg"
   xmlns:sodipodi="http://sodipodi.sourceforge.net/DTD/sodipodi-0.dtd"
   xmlns:inkscape="http://www.inkscape.org/namespaces/inkscape"
   version="1.1"
   x="0px"
   y="0px"
   viewBox="0 0 48.00037 48.00037"
   enable-background="new 0 0 50 50"
   xml:space="preserve"
   id="svg36"
   sodipodi:docname="noun_molecule_36635.svg"
   width="48.00037"
   height="48.00037"
   inkscape:version="0.92.5 (2060ec1f9f, 2020-04-08)"
   inkscape:export-filename="/home/peddn/Downloads/favicon.png"
   inkscape:export-xdpi="31.999754"
   inkscape:export-ydpi="31.999754"><metadata
     id="metadata42"><rdf:RDF><cc:Work
         rdf:about=""><dc:format>image/svg+xml</dc:format><dc:type
           rdf:resource="http://purl.org/dc/dcmitype/StillImage" /><dc:title></dc:title></cc:Work></rdf:RDF></metadata><defs
     id="defs40" /><sodipodi:namedview
     pagecolor="#ffffff"
     bordercolor="#666666"
     borderopacity="1"
     objecttolerance="10"
     gridtolerance="10"
     guidetolerance="10"
     inkscape:pageopacity="0"
     inkscape:pageshadow="2"
     inkscape:window-width="1920"
     inkscape:window-height="1013"
     id="namedview38"
     showgrid="false"
     fit-margin-top="0"
     fit-margin-left="0"
     fit-margin-right="0"
     fit-margin-bottom="2.7755576e-17"
     inkscape:zoom="10.680141"
     inkscape:cx="14.024294"
     inkscape:cy="38.002814"
     inkscape:window-x="0"
     inkscape:window-y="0"
     inkscape:window-maximized="1"
     inkscape:current-layer="svg36"
     inkscape:pagecheckerboard="true" /><g
     id="g30"
     transform="translate(-1.4716189,-0.83600387)"
     style="fill:#00aad4"><rect
       x="12.099"
       y="24.525999"
       transform="matrix(0.9359,-0.3522,0.3522,0.9359,-7.9386,8.1048)"
       width="12.41"
       height="2.687"
       id="rect2"
       style="fill:#00aad4" /><rect
       x="25.959999"
       y="32.595001"
       transform="matrix(0.1155,0.9933,-0.9933,0.1155,62.1614,-1.9328)"
       width="12.411"
       height="2.6860001"
       id="rect4"
       style="fill:#00aad4" /><rect
       x="25.913"
       y="10.05"
       transform="matrix(0.0578,0.9983,-0.9983,0.0578,39.4852,-19.0485)"
       width="7.842"
       height="2.688"
       id="rect6"
       style="fill:#00aad4" /><rect
       x="32.327"
       y="12.946"
       transform="rotate(138.13331,36.248055,14.28816)"
       width="7.842"
       height="2.687"
       id="rect8"
       style="fill:#00aad4" /><g
       id="g12"
       style="fill:#00aad4"><path
         d="m 30.098,11.802 c -5.142,0 -9.31,4.168 -9.31,9.311 0,5.142 4.168,9.31 9.31,9.31 5.141,0 9.309,-4.168 9.309,-9.31 -10e-4,-5.143 -4.169,-9.311 -9.309,-9.311 z M 27.82,23.801 c -2.284,0 -4.136,-1.852 -4.136,-4.138 0,-2.285 1.853,-4.138 4.136,-4.138 2.285,0 4.139,1.853 4.139,4.138 0,2.286 -1.854,4.138 -4.139,4.138 z"
         id="path10"
         inkscape:connector-curvature="0"
         style="fill:#00aad4" /></g><g
       id="g16"
       style="fill:#00aad4"><path
         d="m 29.164,0.836 c -2.455,0 -4.445,1.991 -4.445,4.446 0,2.455 1.99,4.446 4.445,4.446 2.457,0 4.447,-1.991 4.447,-4.446 0,-2.455 -1.99,-4.446 -4.447,-4.446 z m -1.086,5.73 c -1.092,0 -1.977,-0.884 -1.977,-1.976 0,-1.092 0.885,-1.977 1.977,-1.977 1.092,0 1.977,0.885 1.977,1.977 0,1.092 -0.885,1.976 -1.977,1.976 z"
         id="path14"
         inkscape:connector-curvature="0"
         style="fill:#00aad4" /></g><g
       id="g20"
       style="fill:#00aad4"><path
         d="M 41.803,4.934 C 39.44,4.273 36.987,5.655 36.324,8.02 c -0.66,2.365 0.721,4.818 3.086,5.479 2.365,0.661 4.818,-0.721 5.479,-3.086 C 45.551,8.048 44.168,5.595 41.803,4.934 Z M 39.215,10.16 C 38.162,9.867 37.551,8.777 37.844,7.725 38.137,6.673 39.227,6.06 40.28,6.354 c 1.051,0.294 1.664,1.383 1.369,2.435 -0.294,1.052 -1.383,1.665 -2.434,1.371 z"
         id="path18"
         inkscape:connector-curvature="0"
         style="fill:#00aad4" /></g><g
       id="g24"
       style="fill:#00aad4"><path
         d="m 8.79,23.425 c -2.494,1.142 -3.591,4.089 -2.449,6.581 1.141,2.494 4.088,3.591 6.58,2.449 2.494,-1.141 3.59,-4.088 2.449,-6.581 -1.141,-2.493 -4.088,-3.59 -6.58,-2.449 z m 1.558,6.325 C 9.24,30.257 7.931,29.77 7.423,28.661 6.915,27.552 7.402,26.244 8.511,25.736 c 1.108,-0.507 2.417,-0.02 2.925,1.088 0.507,1.11 0.02,2.418 -1.088,2.926 z"
         id="path22"
         inkscape:connector-curvature="0"
         style="fill:#00aad4" /></g><g
       id="g28"
       style="fill:#00aad4"><path
         d="m 30.271,39.588 c -2.365,1.389 -3.156,4.432 -1.77,6.796 1.389,2.365 4.432,3.156 6.797,1.769 2.365,-1.39 3.156,-4.432 1.768,-6.797 -1.388,-2.365 -4.431,-3.157 -6.795,-1.768 z m 2.194,6.134 c -1.051,0.617 -2.404,0.266 -3.021,-0.786 -0.617,-1.052 -0.266,-2.403 0.787,-3.021 1.051,-0.616 2.402,-0.266 3.02,0.786 0.616,1.051 0.265,2.403 -0.786,3.021 z"
         id="path26"
         inkscape:connector-curvature="0"
         style="fill:#00aad4" /></g></g><path
     style="fill:#ffffff;stroke-width:0.09363172"
     d="m 7.0674572,28.864363 c -1.6763976,-0.777818 -1.6803877,-3.12688 -0.00664,-3.906258 0.6113859,-0.28469 1.180887,-0.28469 1.7922728,0 1.386904,0.645807 1.691411,2.449224 0.5899968,3.4942 -0.6249346,0.592912 -1.6155297,0.764732 -2.3756346,0.412058 z"
     id="path3747"
     inkscape:connector-curvature="0" /><path
     style="fill:#ffffff;stroke-width:0.09363172"
     d="m 25.50249,22.816826 c -1.048659,-0.228117 -1.806304,-0.718605 -2.441699,-1.580721 -0.855553,-1.160831 -1.024989,-2.804396 -0.423851,-4.111454 0.757394,-1.646808 2.590125,-2.631666 4.339154,-2.331741 2.0302,0.348141 3.452478,2.019167 3.452478,4.056297 0,1.917557 -1.350536,3.566523 -3.250856,3.969201 -0.758521,0.160731 -0.929813,0.160569 -1.675226,-0.0016 z"
     id="path3749"
     inkscape:connector-curvature="0" /><path
     style="fill:#ffffff;stroke-width:0.09363172"
     d="M 26.038694,5.5895026 C 25.563073,5.4387406 25.032103,4.9701236 24.84632,4.5371524 24.775215,4.3714397 24.717037,3.995933 24.717037,3.7026931 c 0,-1.0579461 0.805758,-1.857583 1.871325,-1.8571098 1.964311,8.723e-4 2.691136,2.5732289 1.001732,3.5453023 -0.510088,0.293502 -1.0386,0.3611643 -1.5514,0.198617 z"
     id="path3751"
     inkscape:connector-curvature="0" /><path
     style="fill:#ffffff;stroke-width:0.09363172"
     d="M 37.693029,9.2680842 C 37.215072,9.1355287 36.591093,8.5082998 36.442523,8.0110636 c -0.143102,-0.478933 -0.145175,-0.761024 -0.0086,-1.1689693 0.463537,-1.3844668 2.186954,-1.7982282 3.190014,-0.7658648 0.423223,0.4355865 0.542324,0.7376144 0.542324,1.3752756 0,1.2722471 -1.215871,2.1652955 -2.473243,1.8165791 z"
     id="path3753"
     inkscape:connector-curvature="0" /><path
     style="fill:#ffffff;stroke-width:0.09363172"
     d="m 28.977281,44.924303 c -0.557887,-0.263086 -0.812179,-0.521981 -1.068897,-1.088242 -0.626946,-1.382896 0.419887,-2.996215 1.944151,-2.996215 2.012788,0 2.936236,2.471428 1.411201,3.776801 -0.66058,0.565432 -1.500246,0.678414 -2.286455,0.307656 z"
     id="path3755"
     inkscape:connector-curvature="0" /></svg>